<?xml version="1.0" encoding="iso-8859-1"?>
<!-- Generator: Adobe Illustrator 19.0.0, SVG Export Plug-In . SVG Version: 6.00 Build 0)  -->
<svg version="1.1" id="Layer_1" xmlns="http://www.w3.org/2000/svg" xmlns:xlink="http://www.w3.org/1999/xlink" x="0px" y="0px"
	 viewBox="0 0 495.848 495.848" style="enable-background:new 0 0 495.848 495.848;" xml:space="preserve">
<path style="fill:#F9BA48;" d="M356.864,151.848h-96v-80h96V151.848z"/>
<g>
	<path style="fill:#333333;" d="M492.848,183.92c0-100.128-81.432-182.624-181.52-183.904C310.544,0.008,309.776,0,309,0
		c-57.336,0-109.768,27.2-143.96,70.456L6.744,32.072l-3.76,15.552l151.976,36.84c-11.864,18.256-20.72,38.768-25.656,60.992
		L2.984,176.072l3.768,15.544l119.56-28.984c-1.96,16.24-1.688,32.776,0.864,49.376L73.08,308.76l59.8,17.12l0.12,97.968h79.992v72
		h16v-88h-80.008l-0.128-94.032l-51.952-14.88l46.968-84l-0.472-2.784c-3.064-18.08-3.008-36.056-0.208-53.608l133.672-32.408V97.56
		L182.168,74.6c31.64-36.768,78.272-59.384,128.952-58.592c91.384,1.168,165.728,76.496,165.728,167.912l0.016,29.2
		c0.048,64.088-31.512,124.088-84.416,160.504l-3.464,2.384v119.84h16v-111.48c55.16-39.616,87.928-103.312,87.88-171.264
		L492.848,183.92z M260.864,110.136v3.424l-113.952,27.624c5.232-19.232,13.624-36.968,24.584-52.712L260.864,110.136z"/>
	<path style="fill:#333333;" d="M241.76,135.848h-4.896v16h10.232l5.672,17.008l-9.528,126.992h9.624h112h9.624l-9.528-126.992
		l5.672-17.008h10.232v-16h-4.896H241.76z M268.288,175.848h81.16l3,40h-87.16L268.288,175.848z M260.488,279.848l3.6-48h89.552
		l3.6,48H260.488z M351.096,159.848h-84.464l-2.664-8h89.8L351.096,159.848z"/>
	<path style="fill:#333333;" d="M236.864,66.904v20.944h144V66.904l-72-36L236.864,66.904z M262.752,71.848l46.112-23.056
		l46.112,23.056H262.752z"/>
</g>
<g>
</g>
<g>
</g>
<g>
</g>
<g>
</g>
<g>
</g>
<g>
</g>
<g>
</g>
<g>
</g>
<g>
</g>
<g>
</g>
<g>
</g>
<g>
</g>
<g>
</g>
<g>
</g>
<g>
</g>
</svg>
