<?xml version="1.0" encoding="iso-8859-1"?>
<!-- Generator: Adobe Illustrator 19.0.0, SVG Export Plug-In . SVG Version: 6.00 Build 0)  -->
<svg version="1.1" id="Capa_1" xmlns="http://www.w3.org/2000/svg" xmlns:xlink="http://www.w3.org/1999/xlink" x="0px" y="0px"
	 viewBox="0 0 511.999 511.999" style="enable-background:new 0 0 511.999 511.999;" xml:space="preserve">
<path style="fill:#FD9727;" d="M261.46,167.145l2.847-5.403c6.736-12.781,20.71-35.668,38.623-45.362
	c27.316-14.782,63.194-12.605,64.707-12.504l21.301,1.406l-16.671,13.332c-9.963,7.992-26.007,24.913-26.628,36.28
	c-0.154,2.813,0.677,4.969,2.695,6.986c0,0,0.001,0.001,0.002,0.002c0.452,0.452,0.968,0.899,1.533,1.329
	c5.015,3.815,9.253,7.445,12.599,10.791c3.364,3.364,13.6,13.6,10.362,24.452c-1.942,6.505-7.784,10.814-17.366,12.811
	c-7.064,1.472-18.97,6.965-27.695,12.776l-5.651,3.765L261.46,167.145z"/>
<path style="fill:#AF8A82;" d="M202.289,216.171L13.515,473.907c-5.561,7.593-4.754,18.106,1.901,24.761l0,0
	c6.657,6.657,17.176,7.462,24.769,1.895l257.614-188.882L202.289,216.171z"/>
<path style="fill:#927266;" d="M272.152,286.034L14.538,474.917c-0.837,0.614-1.714,1.137-2.613,1.596
	c-3.709,7.257-2.432,16.232,3.491,22.155l0,0c6.657,6.657,17.176,7.462,24.769,1.895l257.614-188.882L272.152,286.034z"/>
<path style="fill:#FED130;" d="M482.956,167.463c0.886-3.428-2.696-6.274-5.844-4.653c-38.719,19.936-89.707,9.386-76.506-12.998
	c14.085-23.883,75.937-17.147,95.533-66.138c12.518-31.296,3.295-58.344-5-73.8c-2.006-3.737-7.619-2.35-7.696,1.89
	c-0.269,14.909-5.293,36.008-30.171,42.515c-39.805,10.411-98.48-31.082-157.385,9.186c-44.658,30.529-34.799,84.737-27.554,108.76
	c5.328-11.37,20.131-38.596,38.542-48.559c25.527-13.814,60.217-11.524,60.217-11.524s-47.785,38.221-22.238,57.66
	s25.207,29.957,8.922,33.35c-9.7,2.021-26.376,10.064-36.333,18.182l15.8,15.437c0,0,72.262,18.372,110.23-11.023
	C469.995,205.216,479.584,180.5,482.956,167.463z"/>
<g>
	<path style="fill:#F7BC14;" d="M483.406,13.083c-0.005,0.136-0.012,0.273-0.018,0.41c-0.013,0.31-0.028,0.622-0.045,0.936
		c-0.009,0.168-0.021,0.337-0.031,0.506c-0.018,0.29-0.039,0.58-0.061,0.873c-0.014,0.181-0.028,0.362-0.044,0.543
		c-0.025,0.292-0.053,0.586-0.082,0.881c-0.018,0.177-0.034,0.354-0.053,0.532c-0.036,0.334-0.076,0.669-0.118,1.006
		c-0.017,0.14-0.033,0.279-0.051,0.42c-0.061,0.465-0.128,0.931-0.2,1.4c-0.025,0.159-0.053,0.319-0.079,0.478
		c-0.052,0.32-0.106,0.64-0.164,0.961c-0.037,0.202-0.077,0.405-0.116,0.607c-0.054,0.279-0.109,0.558-0.167,0.837
		c-0.046,0.219-0.094,0.439-0.142,0.659c-0.059,0.266-0.121,0.532-0.184,0.799c-0.053,0.224-0.107,0.448-0.163,0.672
		c-0.068,0.27-0.141,0.539-0.214,0.808c-0.059,0.219-0.116,0.438-0.179,0.657c-0.089,0.312-0.184,0.623-0.28,0.934
		c-0.103,0.334-0.21,0.668-0.32,1.002c-0.098,0.294-0.194,0.588-0.298,0.881c-0.083,0.233-0.171,0.465-0.258,0.698
		c-0.091,0.245-0.183,0.491-0.279,0.735c-0.096,0.243-0.195,0.485-0.296,0.727c-0.096,0.232-0.194,0.464-0.295,0.696
		c-0.107,0.246-0.216,0.492-0.328,0.737c-0.103,0.224-0.21,0.447-0.317,0.671c-0.119,0.248-0.237,0.495-0.362,0.742
		c-0.111,0.22-0.229,0.438-0.345,0.656c-0.129,0.244-0.255,0.489-0.39,0.732c-0.235,0.421-0.479,0.84-0.731,1.255
		c-0.147,0.242-0.304,0.48-0.457,0.719c-0.132,0.206-0.262,0.413-0.399,0.618c-0.161,0.241-0.329,0.478-0.496,0.716
		c-0.14,0.199-0.28,0.397-0.424,0.593c-0.174,0.237-0.353,0.472-0.534,0.706c-0.149,0.193-0.302,0.384-0.455,0.575
		c-0.187,0.232-0.376,0.464-0.57,0.692c-0.158,0.186-0.323,0.37-0.487,0.554c-0.202,0.228-0.402,0.456-0.611,0.68
		c-0.163,0.174-0.334,0.344-0.502,0.515c-0.405,0.415-0.823,0.823-1.255,1.224c-0.183,0.17-0.363,0.342-0.551,0.51
		c-0.232,0.206-0.474,0.407-0.714,0.609c-0.201,0.169-0.401,0.339-0.608,0.505c-0.245,0.197-0.496,0.39-0.749,0.582
		c-0.214,0.163-0.431,0.325-0.651,0.485c-0.259,0.188-0.522,0.374-0.789,0.557c-0.229,0.157-0.464,0.311-0.7,0.464
		c-0.272,0.177-0.542,0.355-0.822,0.527c-0.25,0.154-0.51,0.302-0.767,0.452c-0.279,0.163-0.554,0.329-0.841,0.487l0,0
		c-0.061,0.155-0.114,0.308-0.176,0.463c-19.597,48.991-74.045,39.308-88.439,63.006c-12.867,21.184,2.337,57.435,31.38,53.898
		c-7.179-4.141-10.011-10.33-5.569-17.86c13.807-23.411,73.504-17.409,94.317-63.306c0.418-0.94,0.836-1.881,1.217-2.833
		c3.912-9.78,5.701-19.145,6.058-27.871c0.072-1.745,0.086-3.465,0.048-5.157s-0.127-3.357-0.262-4.993
		c-0.271-3.271-0.727-6.427-1.323-9.451c-0.447-2.268-0.973-4.463-1.559-6.577c-0.391-1.41-0.809-2.784-1.248-4.122
		c-0.439-1.337-0.899-2.637-1.375-3.898c-1.666-4.413-3.525-8.349-5.34-11.73c-0.878-1.635-2.446-2.289-3.939-2.152
		c-1.066,0.097-2.094,0.598-2.805,1.433c-0.568,0.668-0.933,1.55-0.953,2.61C483.435,12.199,483.422,12.64,483.406,13.083z"/>
	<path style="fill:#F7BC14;" d="M482.956,167.463c0.887-3.428-2.696-6.274-5.844-4.653c-15.216,7.834-32.324,10.958-46.689,10.509
		c-5.246,6.598-11.758,13.256-19.855,19.525c-20.08,15.546-49.75,17.73-73.252,16.339c-7.146,3.405-14.491,7.763-19.874,12.152
		l15.8,15.437c0,0,72.262,18.372,110.23-11.023C469.995,205.216,479.584,180.5,482.956,167.463z"/>
</g>
<path style="fill:#B9BBC1;" d="M284.348,273.46l-43.837-43.837c-27.356-27.356-35.937-68.305-21.865-104.342l0.427-1.094
	c1.476-3.78,6.347-4.8,9.216-1.931l163.42,163.42c2.847,2.847,1.867,7.677-1.865,9.189l0,0
	C353.572,309.566,312.023,301.135,284.348,273.46z"/>
<path style="fill:#A0A3AA;" d="M391.709,285.676l-21.46-21.46l-11.32,4.587c-34.18,13.852-73.33,5.908-99.408-20.17l24.826,24.826
	c27.675,27.675,69.224,36.105,105.497,21.406l0,0C393.577,293.353,394.557,288.524,391.709,285.676z"/>
<path style="fill:#FFB125;" d="M304.867,325.584L187.665,208.382c-3.092-3.092-3.092-8.105,0-11.197l11.079-11.079
	c3.092-3.092,8.105-3.092,11.197,0l117.202,117.202c3.092,3.092,3.092,8.105,0,11.197l-11.079,11.079
	C312.972,328.676,307.959,328.676,304.867,325.584z"/>
<path style="fill:#FF901D;" d="M327.143,303.308l-19.806-19.806l-22.276,22.276l19.806,19.806c3.092,3.092,8.105,3.092,11.197,0
	l11.079-11.079C330.235,311.413,330.235,306.4,327.143,303.308z"/>
<path d="M437.378,137.535c23.558-8.208,52.877-18.423,65.909-51.001c14.02-35.048,2.656-65.354-5.365-80.301
	c-2.578-4.803-7.864-7.167-13.148-5.891c-5.302,1.283-8.93,5.818-9.029,11.284c-0.347,19.213-8.564,31.059-24.422,35.206
	c-5.442,1.423-11.912,1.819-19.781,1.202c-4.23-0.326-7.944,2.837-8.275,7.076s2.837,7.943,7.076,8.275
	c9.607,0.748,17.744,0.208,24.876-1.657c13.209-3.454,23.001-10.798,29.102-21.827c2.421-4.377,4.205-9.25,5.343-14.577
	c5.39,14.751,7.907,34.038-0.674,55.491c-10.426,26.064-34.999,34.625-56.679,42.179c-16.07,5.599-31.249,10.888-38.338,22.908
	c-4.933,8.365-4.171,16.966,2.092,23.6c13.346,14.133,48.437,15.347,77.104,3.593c-4.536,12.678-14.174,30.901-34.41,46.567
	c-25.41,19.674-69.603,15.569-89.83,12.347l-13.324-13.324c7.102-3.821,14.658-6.937,19.74-7.994
	c12.273-2.558,16.109-8.658,17.165-13.325c2.161-9.553-4.931-19.943-22.995-33.689c-3.055-2.325-4.435-4.792-4.476-7.998
	c-0.147-11.52,16.4-29.131,26.861-37.521c2.481-1.985,3.488-5.289,2.536-8.32c-0.952-3.03-3.668-5.166-6.838-5.374
	c-1.507-0.098-37.22-2.269-64.388,12.434c-13.26,7.175-24.365,21.673-31.935,33.858c-7.285-45.316,11.456-68.969,28.956-80.932
	c31.461-21.507,62.318-18.067,93.792-12.251c4.188,0.774,8.197-1.991,8.97-6.171c0.773-4.181-1.99-8.197-6.171-8.97
	c-33.38-6.169-69.006-10.116-105.28,14.681c-25.879,17.691-38.643,45.775-37.068,80.443l-20.742-20.742
	c-3.192-3.192-7.735-4.541-12.153-3.619c-4.418,0.926-8.036,3.99-9.678,8.195l-0.427,1.093c-6.706,17.173-8.709,35.666-6.039,53.661
	c-0.363-0.025-0.726-0.053-1.094-0.053c-4.172,0-8.093,1.625-11.042,4.574l-11.079,11.079c-2.949,2.949-4.574,6.871-4.574,11.042
	c0,4.172,1.624,8.094,4.574,11.043l7.065,7.065L7.304,469.358c-7.861,10.732-6.738,25.348,2.668,34.753
	c5.219,5.22,12.039,7.888,18.912,7.888c5.519,0,11.072-1.721,15.853-5.227l248.345-182.086l6.341,6.341
	c2.95,2.95,6.871,4.575,11.043,4.575s8.093-1.625,11.042-4.574l11.079-11.079c2.949-2.949,4.574-6.871,4.574-11.042
	c0-0.159-0.018-0.315-0.023-0.474c5.349,0.832,10.74,1.273,16.13,1.273c13.41,0,26.804-2.573,39.469-7.705
	c4.152-1.683,7.162-5.309,8.053-9.7c0.891-4.391-0.469-8.903-3.637-12.069l0,0l-30.612-30.612
	c5.394,0.416,10.513,0.621,15.333,0.621c36.083,0,56.408-10.737,66.312-18.404c28.367-21.962,38.63-48.551,42.223-62.446
	c1.161-4.49-0.428-9.262-4.048-12.156c-3.627-2.899-8.641-3.398-12.773-1.27c-26.54,13.664-58.533,11.218-66.327,2.964
	c-0.893-0.945-1.905-2.017-0.024-5.207C411.458,146.565,423.47,142.38,437.378,137.535z M310.539,130.437
	c11.649-6.303,25.643-8.957,36.736-10.034c-8.677,9.629-17.785,22.785-17.632,35.453c0.096,7.954,3.744,14.895,10.549,20.074
	c14.465,11.007,16.822,16.433,17.204,17.835c-0.548,0.392-1.975,1.181-5.19,1.851c-7.593,1.581-18.408,6.194-27.906,11.763
	l-43.133-43.133C287.113,153.836,298.07,137.184,310.539,130.437z M321.699,309.062l-11.079,11.079
	c-0.048,0.048-0.26,0.049-0.309-0.001l-66.492-66.491c-3.006-3.005-7.881-3.005-10.888,0c-3.007,3.007-3.007,7.881,0,10.889
	l49.133,49.133L35.632,494.354c-4.562,3.344-10.775,2.869-14.773-1.131c-3.997-3.996-4.473-10.207-1.133-14.767l180.578-246.547
	l7.299,7.299c3.006,3.005,7.881,3.005,10.888,0c3.007-3.007,3.007-7.881,0-10.889l-25.381-25.381
	c-0.024-0.024-0.064-0.064-0.064-0.154c0-0.09,0.041-0.131,0.064-0.154l11.079-11.079c0.048-0.048,0.26-0.049,0.309,0.001
	l-0.309-0.001L321.7,308.754c0.001,0.001-0.001-0.002,0,0l0,0c0.024,0.024,0.064,0.064,0.064,0.154
	C321.763,308.997,321.723,309.038,321.699,309.062z M384.01,288.864c-19.288,7.043-40.351,7.262-59.829,0.593l-99.673-99.673
	c-6.651-19.439-6.437-40.539,0.6-59.823L384.01,288.864C384.014,288.868,384.008,288.862,384.01,288.864L384.01,288.864
	C384.013,288.868,384.008,288.862,384.01,288.864L384.01,288.864C384.013,288.867,384.009,288.863,384.01,288.864L384.01,288.864
	c0.001,0.002,0,0,0.001,0.002L384.01,288.864z"/>
<g>
</g>
<g>
</g>
<g>
</g>
<g>
</g>
<g>
</g>
<g>
</g>
<g>
</g>
<g>
</g>
<g>
</g>
<g>
</g>
<g>
</g>
<g>
</g>
<g>
</g>
<g>
</g>
<g>
</g>
</svg>
